<?xml version="1.0" encoding="UTF-8"?>
<!DOCTYPE svg PUBLIC "-//W3C//DTD SVG 1.1//EN" "http://www.w3.org/Graphics/SVG/1.1/DTD/svg11.dtd">
<svg version="1.2" width="306mm" height="26mm" viewBox="0 0 30600 2600" preserveAspectRatio="xMidYMid" fill-rule="evenodd" stroke-width="28.222" stroke-linejoin="round" xmlns="http://www.w3.org/2000/svg" xmlns:ooo="http://xml.openoffice.org/svg/export" xmlns:xlink="http://www.w3.org/1999/xlink" xmlns:presentation="http://sun.com/xmlns/staroffice/presentation" xmlns:smil="http://www.w3.org/2001/SMIL20/" xmlns:anim="urn:oasis:names:tc:opendocument:xmlns:animation:1.0" xml:space="preserve">
 <defs class="ClipPathGroup">
  <clipPath id="presentation_clip_path" clipPathUnits="userSpaceOnUse">
   <rect x="0" y="0" width="30600" height="2600"/>
  </clipPath>
  <clipPath id="presentation_clip_path_shrink" clipPathUnits="userSpaceOnUse">
   <rect x="30" y="2" width="30539" height="2595"/>
  </clipPath>
 </defs>
 <defs class="TextShapeIndex">
  <g ooo:slide="id1" ooo:id-list="id3 id4 id5 id6 id7 id8 id9 id10 id11 id12"/>
 </defs>
 <defs class="EmbeddedBulletChars">
  <g id="bullet-char-template(57356)" transform="scale(0.00048828125,-0.00048828125)">
   <path d="M 580,1141 L 1163,571 580,0 -4,571 580,1141 Z"/>
  </g>
  <g id="bullet-char-template(57354)" transform="scale(0.00048828125,-0.00048828125)">
   <path d="M 8,1128 L 1137,1128 1137,0 8,0 8,1128 Z"/>
  </g>
  <g id="bullet-char-template(10146)" transform="scale(0.00048828125,-0.00048828125)">
   <path d="M 174,0 L 602,739 174,1481 1456,739 174,0 Z M 1358,739 L 309,1346 659,739 1358,739 Z"/>
  </g>
  <g id="bullet-char-template(10132)" transform="scale(0.00048828125,-0.00048828125)">
   <path d="M 2015,739 L 1276,0 717,0 1260,543 174,543 174,936 1260,936 717,1481 1274,1481 2015,739 Z"/>
  </g>
  <g id="bullet-char-template(10007)" transform="scale(0.00048828125,-0.00048828125)">
   <path d="M 0,-2 C -7,14 -16,27 -25,37 L 356,567 C 262,823 215,952 215,954 215,979 228,992 255,992 264,992 276,990 289,987 310,991 331,999 354,1012 L 381,999 492,748 772,1049 836,1024 860,1049 C 881,1039 901,1025 922,1006 886,937 835,863 770,784 769,783 710,716 594,584 L 774,223 C 774,196 753,168 711,139 L 727,119 C 717,90 699,76 672,76 641,76 570,178 457,381 L 164,-76 C 142,-110 111,-127 72,-127 30,-127 9,-110 8,-76 1,-67 -2,-52 -2,-32 -2,-23 -1,-13 0,-2 Z"/>
  </g>
  <g id="bullet-char-template(10004)" transform="scale(0.00048828125,-0.00048828125)">
   <path d="M 285,-33 C 182,-33 111,30 74,156 52,228 41,333 41,471 41,549 55,616 82,672 116,743 169,778 240,778 293,778 328,747 346,684 L 369,508 C 377,444 397,411 428,410 L 1163,1116 C 1174,1127 1196,1133 1229,1133 1271,1133 1292,1118 1292,1087 L 1292,965 C 1292,929 1282,901 1262,881 L 442,47 C 390,-6 338,-33 285,-33 Z"/>
  </g>
  <g id="bullet-char-template(9679)" transform="scale(0.00048828125,-0.00048828125)">
   <path d="M 813,0 C 632,0 489,54 383,161 276,268 223,411 223,592 223,773 276,916 383,1023 489,1130 632,1184 813,1184 992,1184 1136,1130 1245,1023 1353,916 1407,772 1407,592 1407,412 1353,268 1245,161 1136,54 992,0 813,0 Z"/>
  </g>
  <g id="bullet-char-template(8226)" transform="scale(0.00048828125,-0.00048828125)">
   <path d="M 346,457 C 273,457 209,483 155,535 101,586 74,649 74,723 74,796 101,859 155,911 209,963 273,989 346,989 419,989 480,963 531,910 582,859 608,796 608,723 608,648 583,586 532,535 482,483 420,457 346,457 Z"/>
  </g>
  <g id="bullet-char-template(8211)" transform="scale(0.00048828125,-0.00048828125)">
   <path d="M -4,459 L 1135,459 1135,606 -4,606 -4,459 Z"/>
  </g>
  <g id="bullet-char-template(61548)" transform="scale(0.00048828125,-0.00048828125)">
   <path d="M 173,740 C 173,903 231,1043 346,1159 462,1274 601,1332 765,1332 928,1332 1067,1274 1183,1159 1299,1043 1357,903 1357,740 1357,577 1299,437 1183,322 1067,206 928,148 765,148 601,148 462,206 346,322 231,437 173,577 173,740 Z"/>
  </g>
 </defs>
 <defs class="TextEmbeddedBitmaps"/>
 <g>
  <g id="id2" class="Master_Slide">
   <g id="bg-id2" class="Background"/>
   <g id="bo-id2" class="BackgroundObjects"/>
  </g>
 </g>
 <g class="SlideGroup">
  <g>
   <g id="container-id1">
    <g id="id1" class="Slide" clip-path="url(#presentation_clip_path)">
     <g class="Page">
      <g class="com.sun.star.drawing.CustomShape">
       <g id="id3">
        <rect class="BoundingBox" stroke="none" fill="none" x="0" y="0" width="7978" height="2606"/>
        <path fill="rgb(153,0,0)" stroke="none" d="M 0,0 L 7502,0 7977,1302 7502,2605 0,2605 474,1302 0,0 Z M 0,0 L 0,0 Z M 7977,2605 L 7977,2605 Z"/>
       </g>
      </g>
      <g class="Group">
       <g class="com.sun.star.drawing.ClosedBezierShape">
        <g id="id4">
         <rect class="BoundingBox" stroke="none" fill="none" x="742" y="270" width="1023" height="1704"/>
         <defs>
          <mask id="mask1">
           <g>
            <defs>
             <linearGradient id="gradient1" x1="1271" y1="305" x2="1271" y2="1973" gradientUnits="userSpaceOnUse">
              <stop offset="0.5" style="stop-color:rgb(153,153,153)"/>
              <stop offset="0.5" style="stop-color:rgb(153,153,153)"/>
              <stop offset="1" style="stop-color:rgb(153,153,153)"/>
              <stop offset="1" style="stop-color:rgb(153,153,153)"/>
             </linearGradient>
            </defs>
            <path style="fill:url(#gradient1)" d="M 778,305 L 1764,305 1764,1973 778,1973 778,305 Z"/>
           </g>
          </mask>
         </defs>
         <g style="mask:url(#mask1)">
          <path fill="rgb(0,0,0)" stroke="none" d="M 1277,1955 C 1006,1955 845,1815 795,1532 L 1007,1498 C 1020,1585 1051,1654 1099,1703 1147,1754 1206,1778 1277,1778 1356,1778 1418,1751 1464,1697 1508,1642 1531,1563 1531,1458 L 1531,501 1224,501 1224,323 1746,323 1746,1452 C 1746,1609 1704,1731 1620,1821 1536,1910 1422,1955 1277,1955 Z"/>
          <path fill="none" stroke="rgb(0,0,0)" stroke-width="35" stroke-linejoin="round" d="M 1277,1955 C 1006,1955 845,1815 795,1532 L 1007,1498 C 1020,1585 1051,1654 1099,1703 1147,1754 1206,1778 1277,1778 1356,1778 1418,1751 1464,1697 1508,1642 1531,1563 1531,1458 L 1531,501 1224,501 1224,323 1746,323 1746,1452 C 1746,1609 1704,1731 1620,1821 1536,1910 1422,1955 1277,1955 Z"/>
         </g>
         <path fill="rgb(204,0,0)" stroke="none" d="M 1242,1920 C 971,1920 810,1780 760,1497 L 972,1463 C 985,1550 1016,1619 1064,1668 1112,1719 1171,1743 1242,1743 1321,1743 1383,1716 1429,1662 1473,1607 1496,1528 1496,1423 L 1496,466 1189,466 1189,288 1711,288 1711,1417 C 1711,1574 1669,1696 1585,1786 1501,1875 1387,1920 1242,1920 Z"/>
         <path fill="none" stroke="rgb(255,255,255)" stroke-width="35" stroke-linejoin="round" d="M 1242,1920 C 971,1920 810,1780 760,1497 L 972,1463 C 985,1550 1016,1619 1064,1668 1112,1719 1171,1743 1242,1743 1321,1743 1383,1716 1429,1662 1473,1607 1496,1528 1496,1423 L 1496,466 1189,466 1189,288 1711,288 1711,1417 C 1711,1574 1669,1696 1585,1786 1501,1875 1387,1920 1242,1920 Z"/>
        </g>
       </g>
       <g class="com.sun.star.drawing.ClosedBezierShape">
        <g id="id5">
         <rect class="BoundingBox" stroke="none" fill="none" x="1968" y="620" width="1263" height="1354"/>
         <defs>
          <mask id="mask2">
           <g>
            <defs>
             <linearGradient id="gradient2" x1="2616" y1="656" x2="2616" y2="1973" gradientUnits="userSpaceOnUse">
              <stop offset="0.5" style="stop-color:rgb(153,153,153)"/>
              <stop offset="0.5" style="stop-color:rgb(153,153,153)"/>
              <stop offset="1" style="stop-color:rgb(153,153,153)"/>
              <stop offset="1" style="stop-color:rgb(153,153,153)"/>
             </linearGradient>
            </defs>
            <path style="fill:url(#gradient2)" d="M 2004,656 L 3229,656 3229,1973 2004,1973 2004,656 Z"/>
           </g>
          </mask>
         </defs>
         <g style="mask:url(#mask2)">
          <path fill="rgb(0,0,0)" stroke="none" d="M 2391,1955 C 2269,1955 2177,1922 2115,1856 2053,1791 2021,1699 2021,1585 2021,1456 2064,1357 2146,1288 2229,1219 2365,1184 2550,1184 L 2825,1184 2825,1115 C 2825,1013 2804,940 2762,896 2719,852 2653,830 2562,830 2471,830 2404,846 2363,876 2321,908 2296,957 2288,1026 L 2075,1006 C 2111,785 2274,673 2567,673 2721,673 2837,709 2915,781 2992,851 3030,955 3030,1090 L 3030,1622 C 3030,1683 3038,1728 3054,1760 3070,1791 3100,1807 3145,1807 3165,1807 3187,1803 3212,1797 L 3212,1926 C 3161,1938 3108,1945 3054,1945 2979,1945 2924,1925 2890,1884 2855,1844 2836,1782 2832,1695 L 2825,1695 C 2773,1791 2712,1857 2644,1897 2574,1936 2490,1955 2391,1955 Z M 2438,1801 C 2512,1801 2579,1784 2637,1750 2695,1717 2741,1669 2775,1610 2808,1551 2825,1490 2825,1427 L 2825,1326 2602,1326 C 2506,1326 2433,1336 2385,1353 2335,1371 2296,1401 2270,1439 2244,1476 2231,1527 2231,1589 2231,1657 2249,1709 2285,1746 2320,1783 2371,1801 2438,1801 Z"/>
          <path fill="none" stroke="rgb(0,0,0)" stroke-width="35" stroke-linejoin="round" d="M 2391,1955 C 2269,1955 2177,1922 2115,1856 2053,1791 2021,1699 2021,1585 2021,1456 2064,1357 2146,1288 2229,1219 2365,1184 2550,1184 L 2825,1184 2825,1115 C 2825,1013 2804,940 2762,896 2719,852 2653,830 2562,830 2471,830 2404,846 2363,876 2321,908 2296,957 2288,1026 L 2075,1006 C 2111,785 2274,673 2567,673 2721,673 2837,709 2915,781 2992,851 3030,955 3030,1090 L 3030,1622 C 3030,1683 3038,1728 3054,1760 3070,1791 3100,1807 3145,1807 3165,1807 3187,1803 3212,1797 L 3212,1926 C 3161,1938 3108,1945 3054,1945 2979,1945 2924,1925 2890,1884 2855,1844 2836,1782 2832,1695 L 2825,1695 C 2773,1791 2712,1857 2644,1897 2574,1936 2490,1955 2391,1955 Z"/>
          <path fill="none" stroke="rgb(0,0,0)" stroke-width="35" stroke-linejoin="round" d="M 2438,1801 C 2512,1801 2579,1784 2637,1750 2695,1717 2741,1669 2775,1610 2808,1551 2825,1490 2825,1427 L 2825,1326 2602,1326 C 2506,1326 2433,1336 2385,1353 2335,1371 2296,1401 2270,1439 2244,1476 2231,1527 2231,1589 2231,1657 2249,1709 2285,1746 2320,1783 2371,1801 2438,1801 Z"/>
         </g>
         <path fill="rgb(204,0,0)" stroke="none" d="M 2356,1920 C 2234,1920 2142,1887 2080,1821 2018,1756 1986,1664 1986,1550 1986,1421 2029,1322 2111,1253 2194,1184 2330,1149 2515,1149 L 2790,1149 2790,1080 C 2790,978 2769,905 2727,861 2684,817 2618,795 2527,795 2436,795 2369,811 2328,841 2286,873 2261,922 2253,991 L 2040,971 C 2076,750 2239,638 2532,638 2686,638 2802,674 2880,746 2957,816 2995,920 2995,1055 L 2995,1587 C 2995,1648 3003,1693 3019,1725 3035,1756 3065,1772 3110,1772 3130,1772 3152,1768 3177,1762 L 3177,1891 C 3126,1903 3073,1910 3019,1910 2944,1910 2889,1890 2855,1849 2820,1809 2801,1747 2797,1660 L 2790,1660 C 2738,1756 2677,1822 2609,1862 2539,1901 2455,1920 2356,1920 Z M 2403,1766 C 2477,1766 2544,1749 2602,1715 2660,1682 2706,1634 2740,1575 2773,1516 2790,1455 2790,1392 L 2790,1291 2567,1291 C 2471,1291 2398,1301 2350,1318 2300,1336 2261,1366 2235,1404 2209,1441 2196,1492 2196,1554 2196,1622 2214,1674 2250,1711 2285,1748 2336,1766 2403,1766 Z"/>
         <path fill="none" stroke="rgb(255,255,255)" stroke-width="35" stroke-linejoin="round" d="M 2356,1920 C 2234,1920 2142,1887 2080,1821 2018,1756 1986,1664 1986,1550 1986,1421 2029,1322 2111,1253 2194,1184 2330,1149 2515,1149 L 2790,1149 2790,1080 C 2790,978 2769,905 2727,861 2684,817 2618,795 2527,795 2436,795 2369,811 2328,841 2286,873 2261,922 2253,991 L 2040,971 C 2076,750 2239,638 2532,638 2686,638 2802,674 2880,746 2957,816 2995,920 2995,1055 L 2995,1587 C 2995,1648 3003,1693 3019,1725 3035,1756 3065,1772 3110,1772 3130,1772 3152,1768 3177,1762 L 3177,1891 C 3126,1903 3073,1910 3019,1910 2944,1910 2889,1890 2855,1849 2820,1809 2801,1747 2797,1660 L 2790,1660 C 2738,1756 2677,1822 2609,1862 2539,1901 2455,1920 2356,1920 Z"/>
         <path fill="none" stroke="rgb(255,255,255)" stroke-width="35" stroke-linejoin="round" d="M 2403,1766 C 2477,1766 2544,1749 2602,1715 2660,1682 2706,1634 2740,1575 2773,1516 2790,1455 2790,1392 L 2790,1291 2567,1291 C 2471,1291 2398,1301 2350,1318 2300,1336 2261,1366 2235,1404 2209,1441 2196,1492 2196,1554 2196,1622 2214,1674 2250,1711 2285,1748 2336,1766 2403,1766 Z"/>
        </g>
       </g>
       <g class="com.sun.star.drawing.ClosedBezierShape">
        <g id="id6">
         <rect class="BoundingBox" stroke="none" fill="none" x="3171" y="642" width="1220" height="1794"/>
         <defs>
          <mask id="mask3">
           <g>
            <defs>
             <linearGradient id="gradient3" x1="3798" y1="677" x2="3798" y2="2435" gradientUnits="userSpaceOnUse">
              <stop offset="0.5" style="stop-color:rgb(153,153,153)"/>
              <stop offset="0.5" style="stop-color:rgb(153,153,153)"/>
              <stop offset="1" style="stop-color:rgb(153,153,153)"/>
              <stop offset="1" style="stop-color:rgb(153,153,153)"/>
             </linearGradient>
            </defs>
            <path style="fill:url(#gradient3)" d="M 3206,677 L 4390,677 4390,2435 3206,2435 3206,677 Z"/>
           </g>
          </mask>
         </defs>
         <g style="mask:url(#mask3)">
          <path fill="rgb(0,0,0)" stroke="none" d="M 3434,2417 C 3379,2417 3332,2412 3294,2404 L 3294,2250 C 3322,2254 3354,2257 3390,2257 3516,2257 3616,2162 3689,1974 L 3709,1925 3224,695 3441,695 3699,1378 C 3703,1389 3708,1402 3713,1417 3718,1431 3736,1480 3763,1565 3792,1650 3808,1697 3811,1707 L 3889,1482 4158,695 4372,695 3901,1932 C 3851,2063 3804,2161 3761,2225 3716,2290 3668,2338 3614,2370 3562,2401 3501,2417 3434,2417 Z"/>
          <path fill="none" stroke="rgb(0,0,0)" stroke-width="35" stroke-linejoin="round" d="M 3434,2417 C 3379,2417 3332,2412 3294,2404 L 3294,2250 C 3322,2254 3354,2257 3390,2257 3516,2257 3616,2162 3689,1974 L 3709,1925 3224,695 3441,695 3699,1378 C 3703,1389 3708,1402 3713,1417 3718,1431 3736,1480 3763,1565 3792,1650 3808,1697 3811,1707 L 3889,1482 4158,695 4372,695 3901,1932 C 3851,2063 3804,2161 3761,2225 3716,2290 3668,2338 3614,2370 3562,2401 3501,2417 3434,2417 Z"/>
         </g>
         <path fill="rgb(204,0,0)" stroke="none" d="M 3399,2382 C 3344,2382 3297,2377 3259,2369 L 3259,2215 C 3287,2219 3319,2222 3355,2222 3481,2222 3581,2127 3654,1939 L 3674,1890 3189,660 3406,660 3664,1343 C 3668,1354 3673,1367 3678,1382 3683,1396 3701,1445 3728,1530 3757,1615 3773,1662 3776,1672 L 3854,1447 4123,660 4337,660 3866,1897 C 3816,2028 3769,2126 3726,2190 3681,2255 3633,2303 3579,2335 3527,2366 3466,2382 3399,2382 Z"/>
         <path fill="none" stroke="rgb(255,255,255)" stroke-width="35" stroke-linejoin="round" d="M 3399,2382 C 3344,2382 3297,2377 3259,2369 L 3259,2215 C 3287,2219 3319,2222 3355,2222 3481,2222 3581,2127 3654,1939 L 3674,1890 3189,660 3406,660 3664,1343 C 3668,1354 3673,1367 3678,1382 3683,1396 3701,1445 3728,1530 3757,1615 3773,1662 3776,1672 L 3854,1447 4123,660 4337,660 3866,1897 C 3816,2028 3769,2126 3726,2190 3681,2255 3633,2303 3579,2335 3527,2366 3466,2382 3399,2382 Z"/>
        </g>
       </g>
       <g class="com.sun.star.drawing.ClosedBezierShape">
        <g id="id7">
         <rect class="BoundingBox" stroke="none" fill="none" x="4339" y="269" width="1598" height="1682"/>
         <defs>
          <mask id="mask4">
           <g>
            <defs>
             <linearGradient id="gradient4" x1="5154" y1="304" x2="5154" y2="1949" gradientUnits="userSpaceOnUse">
              <stop offset="0.5" style="stop-color:rgb(153,153,153)"/>
              <stop offset="0.5" style="stop-color:rgb(153,153,153)"/>
              <stop offset="1" style="stop-color:rgb(153,153,153)"/>
              <stop offset="1" style="stop-color:rgb(153,153,153)"/>
             </linearGradient>
            </defs>
            <path style="fill:url(#gradient4)" d="M 4374,304 L 5935,304 5935,1949 4374,1949 4374,304 Z"/>
           </g>
          </mask>
         </defs>
         <g style="mask:url(#mask4)">
          <path fill="rgb(0,0,0)" stroke="none" d="M 5267,1932 C 5192,1932 5117,1932 5043,1932 4826,1395 4609,858 4392,322 4468,322 4543,322 4620,322 4767,700 4914,1077 5060,1455 5092,1551 5125,1645 5156,1740 5188,1645 5219,1551 5251,1455 5397,1077 5543,700 5690,322 5765,322 5842,322 5918,322 5701,858 5484,1395 5267,1932 Z"/>
          <path fill="none" stroke="rgb(0,0,0)" stroke-width="35" stroke-linejoin="round" d="M 5267,1932 C 5192,1932 5117,1932 5043,1932 4826,1395 4609,858 4392,322 4468,322 4543,322 4620,322 4767,700 4914,1077 5060,1455 5092,1551 5125,1645 5156,1740 5188,1645 5219,1551 5251,1455 5397,1077 5543,700 5690,322 5765,322 5842,322 5918,322 5701,858 5484,1395 5267,1932 Z"/>
         </g>
         <path fill="rgb(204,0,0)" stroke="none" d="M 5232,1897 C 5157,1897 5082,1897 5008,1897 4791,1360 4574,823 4357,287 4433,287 4508,287 4585,287 4732,665 4879,1042 5025,1420 5057,1516 5090,1610 5121,1705 5153,1610 5184,1516 5216,1420 5362,1042 5508,665 5655,287 5730,287 5807,287 5883,287 5666,823 5449,1360 5232,1897 Z"/>
         <path fill="none" stroke="rgb(255,255,255)" stroke-width="35" stroke-linejoin="round" d="M 5232,1897 C 5157,1897 5082,1897 5008,1897 4791,1360 4574,823 4357,287 4433,287 4508,287 4585,287 4732,665 4879,1042 5025,1420 5057,1516 5090,1610 5121,1705 5153,1610 5184,1516 5216,1420 5362,1042 5508,665 5655,287 5730,287 5807,287 5883,287 5666,823 5449,1360 5232,1897 Z"/>
        </g>
       </g>
       <g class="com.sun.star.drawing.ClosedBezierShape">
        <g id="id8">
         <rect class="BoundingBox" stroke="none" fill="none" x="5877" y="182" width="715" height="1791"/>
         <defs>
          <mask id="mask5">
           <g>
            <defs>
             <linearGradient id="gradient5" x1="6251" y1="218" x2="6251" y2="1972" gradientUnits="userSpaceOnUse">
              <stop offset="0.5" style="stop-color:rgb(153,153,153)"/>
              <stop offset="0.5" style="stop-color:rgb(153,153,153)"/>
              <stop offset="1" style="stop-color:rgb(153,153,153)"/>
              <stop offset="1" style="stop-color:rgb(153,153,153)"/>
             </linearGradient>
            </defs>
            <path style="fill:url(#gradient5)" d="M 5912,218 L 6591,218 6591,1972 5912,1972 5912,218 Z"/>
           </g>
          </mask>
         </defs>
         <g style="mask:url(#mask5)">
          <path fill="rgb(0,0,0)" stroke="none" d="M 5930,1954 C 6085,1381 6240,809 6395,235 6455,235 6514,235 6573,235 6420,809 6267,1381 6113,1954 6052,1954 5990,1954 5930,1954 Z"/>
          <path fill="none" stroke="rgb(0,0,0)" stroke-width="35" stroke-linejoin="round" d="M 5930,1954 C 6085,1381 6240,809 6395,235 6455,235 6514,235 6573,235 6420,809 6267,1381 6113,1954 6052,1954 5990,1954 5930,1954 Z"/>
         </g>
         <path fill="rgb(204,0,0)" stroke="none" d="M 5895,1919 C 6050,1346 6205,774 6360,200 6420,200 6479,200 6538,200 6385,774 6232,1346 6078,1919 6017,1919 5955,1919 5895,1919 Z"/>
         <path fill="none" stroke="rgb(255,255,255)" stroke-width="35" stroke-linejoin="round" d="M 5895,1919 C 6050,1346 6205,774 6360,200 6420,200 6479,200 6538,200 6385,774 6232,1346 6078,1919 6017,1919 5955,1919 5895,1919 Z"/>
        </g>
       </g>
       <g class="com.sun.star.drawing.ClosedBezierShape">
        <g id="id9">
         <rect class="BoundingBox" stroke="none" fill="none" x="6520" y="182" width="715" height="1791"/>
         <defs>
          <mask id="mask6">
           <g>
            <defs>
             <linearGradient id="gradient6" x1="6895" y1="218" x2="6895" y2="1972" gradientUnits="userSpaceOnUse">
              <stop offset="0.5" style="stop-color:rgb(153,153,153)"/>
              <stop offset="0.5" style="stop-color:rgb(153,153,153)"/>
              <stop offset="1" style="stop-color:rgb(153,153,153)"/>
              <stop offset="1" style="stop-color:rgb(153,153,153)"/>
             </linearGradient>
            </defs>
            <path style="fill:url(#gradient6)" d="M 6556,218 L 7234,218 7234,1972 6556,1972 6556,218 Z"/>
           </g>
          </mask>
         </defs>
         <g style="mask:url(#mask6)">
          <path fill="rgb(0,0,0)" stroke="none" d="M 6573,1954 C 6728,1381 6884,809 7039,235 7098,235 7157,235 7216,235 7064,809 6910,1381 6756,1954 6695,1954 6634,1954 6573,1954 Z"/>
          <path fill="none" stroke="rgb(0,0,0)" stroke-width="35" stroke-linejoin="round" d="M 6573,1954 C 6728,1381 6884,809 7039,235 7098,235 7157,235 7216,235 7064,809 6910,1381 6756,1954 6695,1954 6634,1954 6573,1954 Z"/>
         </g>
         <path fill="rgb(204,0,0)" stroke="none" d="M 6538,1919 C 6693,1346 6849,774 7004,200 7063,200 7122,200 7181,200 7029,774 6875,1346 6721,1919 6660,1919 6599,1919 6538,1919 Z"/>
         <path fill="none" stroke="rgb(255,255,255)" stroke-width="35" stroke-linejoin="round" d="M 6538,1919 C 6693,1346 6849,774 7004,200 7063,200 7122,200 7181,200 7029,774 6875,1346 6721,1919 6660,1919 6599,1919 6538,1919 Z"/>
        </g>
       </g>
      </g>
      <g class="com.sun.star.drawing.CustomShape">
       <g id="id10">
        <rect class="BoundingBox" stroke="none" fill="none" x="7543" y="2" width="7977" height="2607"/>
        <g>
         <defs>
          <linearGradient id="gradient7" x1="7543" y1="1304" x2="15518" y2="1304" gradientUnits="userSpaceOnUse">
           <stop offset="0" style="stop-color:rgb(153,0,0)"/>
           <stop offset="1" style="stop-color:rgb(204,0,0)"/>
          </linearGradient>
         </defs>
         <path style="fill:url(#gradient7)" d="M 7543,2 L 15044,2 15518,1304 15044,2607 7543,2607 8017,1304 7543,2 Z"/>
        </g>
       </g>
      </g>
      <g class="com.sun.star.drawing.CustomShape">
       <g id="id11">
        <rect class="BoundingBox" stroke="none" fill="none" x="15088" y="4" width="7979" height="2606"/>
        <g>
         <defs>
          <linearGradient id="gradient8" x1="15089" y1="1306" x2="23066" y2="1306" gradientUnits="userSpaceOnUse">
           <stop offset="0" style="stop-color:rgb(204,0,0)"/>
           <stop offset="1" style="stop-color:rgb(255,0,0)"/>
          </linearGradient>
         </defs>
         <path style="fill:url(#gradient8)" d="M 15089,4 L 22591,4 23066,1306 22591,2609 15089,2609 15563,1306 15089,4 Z"/>
        </g>
       </g>
      </g>
      <g class="com.sun.star.drawing.CustomShape">
       <g id="id12">
        <rect class="BoundingBox" stroke="none" fill="none" x="22634" y="6" width="7978" height="2606"/>
        <defs>
         <mask id="mask7">
          <g>
           <defs>
            <linearGradient id="gradient9" x1="22634" y1="1308" x2="30611" y2="1308" gradientUnits="userSpaceOnUse">
             <stop offset="0" style="stop-color:rgb(242,242,242)"/>
             <stop offset="1" style="stop-color:rgb(0,0,0)"/>
            </linearGradient>
           </defs>
           <path style="fill:url(#gradient9)" d="M 22634,6 L 30611,6 30611,2611 22634,2611 22634,6 Z"/>
          </g>
         </mask>
        </defs>
        <g style="mask:url(#mask7)">
         <g>
          <defs>
           <linearGradient id="gradient10" x1="22634" y1="1308" x2="30611" y2="1308" gradientUnits="userSpaceOnUse">
            <stop offset="0" style="stop-color:rgb(255,0,0)"/>
            <stop offset="1" style="stop-color:rgb(255,102,102)"/>
           </linearGradient>
          </defs>
          <path style="fill:url(#gradient10)" d="M 22634,6 L 30136,6 30611,1308 30136,2611 22634,2611 23108,1308 22634,6 Z"/>
         </g>
        </g>
       </g>
      </g>
     </g>
    </g>
   </g>
  </g>
 </g>
</svg>