<?xml version="1.0" encoding="UTF-8"?>
<!DOCTYPE svg PUBLIC "-//W3C//DTD SVG 1.1//EN" "http://www.w3.org/Graphics/SVG/1.1/DTD/svg11.dtd">
<svg version="1.2" width="306mm" height="26mm" viewBox="0 0 30600 2600" preserveAspectRatio="xMidYMid" fill-rule="evenodd" stroke-width="28.222" stroke-linejoin="round" xmlns="http://www.w3.org/2000/svg" xmlns:ooo="http://xml.openoffice.org/svg/export" xmlns:xlink="http://www.w3.org/1999/xlink" xmlns:presentation="http://sun.com/xmlns/staroffice/presentation" xmlns:smil="http://www.w3.org/2001/SMIL20/" xmlns:anim="urn:oasis:names:tc:opendocument:xmlns:animation:1.0" xml:space="preserve">
 <defs class="ClipPathGroup">
  <clipPath id="presentation_clip_path" clipPathUnits="userSpaceOnUse">
   <rect x="0" y="0" width="30600" height="2600"/>
  </clipPath>
  <clipPath id="presentation_clip_path_shrink" clipPathUnits="userSpaceOnUse">
   <rect x="30" y="2" width="30539" height="2595"/>
  </clipPath>
 </defs>
 <defs class="TextShapeIndex">
  <g ooo:slide="id1" ooo:id-list="id3 id4 id5 id6 id7 id8 id9 id10 id11 id12 id13"/>
 </defs>
 <defs class="EmbeddedBulletChars">
  <g id="bullet-char-template(57356)" transform="scale(0.00048828125,-0.00048828125)">
   <path d="M 580,1141 L 1163,571 580,0 -4,571 580,1141 Z"/>
  </g>
  <g id="bullet-char-template(57354)" transform="scale(0.00048828125,-0.00048828125)">
   <path d="M 8,1128 L 1137,1128 1137,0 8,0 8,1128 Z"/>
  </g>
  <g id="bullet-char-template(10146)" transform="scale(0.00048828125,-0.00048828125)">
   <path d="M 174,0 L 602,739 174,1481 1456,739 174,0 Z M 1358,739 L 309,1346 659,739 1358,739 Z"/>
  </g>
  <g id="bullet-char-template(10132)" transform="scale(0.00048828125,-0.00048828125)">
   <path d="M 2015,739 L 1276,0 717,0 1260,543 174,543 174,936 1260,936 717,1481 1274,1481 2015,739 Z"/>
  </g>
  <g id="bullet-char-template(10007)" transform="scale(0.00048828125,-0.00048828125)">
   <path d="M 0,-2 C -7,14 -16,27 -25,37 L 356,567 C 262,823 215,952 215,954 215,979 228,992 255,992 264,992 276,990 289,987 310,991 331,999 354,1012 L 381,999 492,748 772,1049 836,1024 860,1049 C 881,1039 901,1025 922,1006 886,937 835,863 770,784 769,783 710,716 594,584 L 774,223 C 774,196 753,168 711,139 L 727,119 C 717,90 699,76 672,76 641,76 570,178 457,381 L 164,-76 C 142,-110 111,-127 72,-127 30,-127 9,-110 8,-76 1,-67 -2,-52 -2,-32 -2,-23 -1,-13 0,-2 Z"/>
  </g>
  <g id="bullet-char-template(10004)" transform="scale(0.00048828125,-0.00048828125)">
   <path d="M 285,-33 C 182,-33 111,30 74,156 52,228 41,333 41,471 41,549 55,616 82,672 116,743 169,778 240,778 293,778 328,747 346,684 L 369,508 C 377,444 397,411 428,410 L 1163,1116 C 1174,1127 1196,1133 1229,1133 1271,1133 1292,1118 1292,1087 L 1292,965 C 1292,929 1282,901 1262,881 L 442,47 C 390,-6 338,-33 285,-33 Z"/>
  </g>
  <g id="bullet-char-template(9679)" transform="scale(0.00048828125,-0.00048828125)">
   <path d="M 813,0 C 632,0 489,54 383,161 276,268 223,411 223,592 223,773 276,916 383,1023 489,1130 632,1184 813,1184 992,1184 1136,1130 1245,1023 1353,916 1407,772 1407,592 1407,412 1353,268 1245,161 1136,54 992,0 813,0 Z"/>
  </g>
  <g id="bullet-char-template(8226)" transform="scale(0.00048828125,-0.00048828125)">
   <path d="M 346,457 C 273,457 209,483 155,535 101,586 74,649 74,723 74,796 101,859 155,911 209,963 273,989 346,989 419,989 480,963 531,910 582,859 608,796 608,723 608,648 583,586 532,535 482,483 420,457 346,457 Z"/>
  </g>
  <g id="bullet-char-template(8211)" transform="scale(0.00048828125,-0.00048828125)">
   <path d="M -4,459 L 1135,459 1135,606 -4,606 -4,459 Z"/>
  </g>
  <g id="bullet-char-template(61548)" transform="scale(0.00048828125,-0.00048828125)">
   <path d="M 173,740 C 173,903 231,1043 346,1159 462,1274 601,1332 765,1332 928,1332 1067,1274 1183,1159 1299,1043 1357,903 1357,740 1357,577 1299,437 1183,322 1067,206 928,148 765,148 601,148 462,206 346,322 231,437 173,577 173,740 Z"/>
  </g>
 </defs>
 <defs class="TextEmbeddedBitmaps"/>
 <g>
  <g id="id2" class="Master_Slide">
   <g id="bg-id2" class="Background"/>
   <g id="bo-id2" class="BackgroundObjects"/>
  </g>
 </g>
 <g class="SlideGroup">
  <g>
   <g id="container-id1">
    <g id="id1" class="Slide" clip-path="url(#presentation_clip_path)">
     <g class="Page">
      <g class="com.sun.star.drawing.CustomShape">
       <g id="id3">
        <rect class="BoundingBox" stroke="none" fill="none" x="0" y="0" width="7978" height="2606"/>
        <path fill="rgb(153,0,0)" stroke="none" d="M 0,0 L 7502,0 7977,1302 7502,2605 0,2605 474,1302 0,0 Z M 0,0 L 0,0 Z M 7977,2605 L 7977,2605 Z"/>
       </g>
      </g>
      <g class="com.sun.star.drawing.CustomShape">
       <g id="id4">
        <rect class="BoundingBox" stroke="none" fill="none" x="7543" y="2" width="7977" height="2607"/>
        <g>
         <defs>
          <linearGradient id="gradient1" x1="7543" y1="1304" x2="15518" y2="1304" gradientUnits="userSpaceOnUse">
           <stop offset="0" style="stop-color:rgb(153,0,0)"/>
           <stop offset="1" style="stop-color:rgb(255,0,0)"/>
          </linearGradient>
         </defs>
         <path style="fill:url(#gradient1)" d="M 7543,2 L 15044,2 15518,1304 15044,2607 7543,2607 8017,1304 7543,2 Z"/>
        </g>
       </g>
      </g>
      <g class="com.sun.star.drawing.CustomShape">
       <g id="id5">
        <rect class="BoundingBox" stroke="none" fill="none" x="15088" y="4" width="7979" height="2606"/>
        <g>
         <defs>
          <linearGradient id="gradient2" x1="15089" y1="1306" x2="23066" y2="1306" gradientUnits="userSpaceOnUse">
           <stop offset="0" style="stop-color:rgb(255,0,0)"/>
           <stop offset="1" style="stop-color:rgb(255,153,153)"/>
          </linearGradient>
         </defs>
         <path style="fill:url(#gradient2)" d="M 15089,4 L 22591,4 23066,1306 22591,2609 15089,2609 15563,1306 15089,4 Z"/>
        </g>
       </g>
      </g>
      <g class="com.sun.star.drawing.CustomShape">
       <g id="id6">
        <rect class="BoundingBox" stroke="none" fill="none" x="22634" y="6" width="7978" height="2606"/>
        <defs>
         <mask id="mask1">
          <g>
           <defs>
            <linearGradient id="gradient3" x1="22634" y1="1308" x2="30611" y2="1308" gradientUnits="userSpaceOnUse">
             <stop offset="0" style="stop-color:rgb(255,255,255)"/>
             <stop offset="1" style="stop-color:rgb(0,0,0)"/>
            </linearGradient>
           </defs>
           <path style="fill:url(#gradient3)" d="M 22634,6 L 30611,6 30611,2611 22634,2611 22634,6 Z"/>
          </g>
         </mask>
        </defs>
        <g style="mask:url(#mask1)">
         <path fill="rgb(255,153,153)" stroke="none" d="M 22634,6 L 30136,6 30611,1308 30136,2611 22634,2611 23108,1308 22634,6 Z M 22634,6 L 22634,6 Z M 30611,2611 L 30611,2611 Z"/>
        </g>
       </g>
      </g>
      <g class="com.sun.star.drawing.CustomShape">
       <g id="id7">
        <rect class="BoundingBox" stroke="none" fill="none" x="-1" y="7" width="30613" height="2606"/>
        <defs>
         <mask id="mask2">
          <g>
           <defs>
            <linearGradient id="gradient4" x1="15305" y1="7" x2="15305" y2="2612" gradientUnits="userSpaceOnUse">
             <stop offset="0" style="stop-color:rgb(0,0,0)"/>
             <stop offset="1" style="stop-color:rgb(255,255,255)"/>
            </linearGradient>
           </defs>
           <path style="fill:url(#gradient4)" d="M -1,7 L 30611,7 30611,2612 -1,2612 -1,7 Z"/>
          </g>
         </mask>
        </defs>
        <g style="mask:url(#mask2)">
         <path fill="rgb(153,0,0)" stroke="none" d="M -1,7 L 30115,7 30611,1309 30115,2612 -1,2612 494,1309 -1,7 Z M -1,7 L -1,7 Z M 30611,2612 L 30611,2612 Z"/>
        </g>
       </g>
      </g>
      <g class="Group">
       <g class="com.sun.star.drawing.ClosedBezierShape">
        <g id="id8">
         <rect class="BoundingBox" stroke="none" fill="none" x="742" y="270" width="1023" height="1705"/>
         <defs>
          <mask id="mask3">
           <g>
            <defs>
             <linearGradient id="gradient5" x1="1271" y1="306" x2="1271" y2="1974" gradientUnits="userSpaceOnUse">
              <stop offset="0.5" style="stop-color:rgb(153,153,153)"/>
              <stop offset="0.5" style="stop-color:rgb(153,153,153)"/>
              <stop offset="1" style="stop-color:rgb(153,153,153)"/>
              <stop offset="1" style="stop-color:rgb(153,153,153)"/>
             </linearGradient>
            </defs>
            <path style="fill:url(#gradient5)" d="M 778,306 L 1764,306 1764,1974 778,1974 778,306 Z"/>
           </g>
          </mask>
         </defs>
         <g style="mask:url(#mask3)">
          <path fill="rgb(0,0,0)" stroke="none" d="M 1276,1956 C 1005,1956 845,1815 795,1532 L 1007,1498 C 1020,1585 1050,1654 1099,1703 1146,1754 1205,1778 1276,1778 1355,1778 1417,1751 1463,1697 1508,1642 1530,1563 1530,1458 L 1530,501 1224,501 1224,323 1746,323 1746,1453 C 1746,1609 1704,1731 1620,1821 1536,1910 1421,1956 1276,1956 Z"/>
          <path fill="none" stroke="rgb(0,0,0)" stroke-width="35" stroke-linejoin="round" d="M 1276,1956 C 1005,1956 845,1815 795,1532 L 1007,1498 C 1020,1585 1050,1654 1099,1703 1146,1754 1205,1778 1276,1778 1355,1778 1417,1751 1463,1697 1508,1642 1530,1563 1530,1458 L 1530,501 1224,501 1224,323 1746,323 1746,1453 C 1746,1609 1704,1731 1620,1821 1536,1910 1421,1956 1276,1956 Z"/>
         </g>
         <path fill="rgb(204,0,0)" stroke="none" d="M 1241,1921 C 970,1921 810,1780 760,1497 L 972,1463 C 985,1550 1015,1619 1064,1668 1111,1719 1170,1743 1241,1743 1320,1743 1382,1716 1428,1662 1473,1607 1495,1528 1495,1423 L 1495,466 1189,466 1189,288 1711,288 1711,1418 C 1711,1574 1669,1696 1585,1786 1501,1875 1386,1921 1241,1921 Z"/>
         <path fill="none" stroke="rgb(255,255,255)" stroke-width="35" stroke-linejoin="round" d="M 1241,1921 C 970,1921 810,1780 760,1497 L 972,1463 C 985,1550 1015,1619 1064,1668 1111,1719 1170,1743 1241,1743 1320,1743 1382,1716 1428,1662 1473,1607 1495,1528 1495,1423 L 1495,466 1189,466 1189,288 1711,288 1711,1418 C 1711,1574 1669,1696 1585,1786 1501,1875 1386,1921 1241,1921 Z"/>
        </g>
       </g>
       <g class="com.sun.star.drawing.ClosedBezierShape">
        <g id="id9">
         <rect class="BoundingBox" stroke="none" fill="none" x="1968" y="620" width="1263" height="1354"/>
         <defs>
          <mask id="mask4">
           <g>
            <defs>
             <linearGradient id="gradient6" x1="2617" y1="656" x2="2617" y2="1973" gradientUnits="userSpaceOnUse">
              <stop offset="0.5" style="stop-color:rgb(153,153,153)"/>
              <stop offset="0.5" style="stop-color:rgb(153,153,153)"/>
              <stop offset="1" style="stop-color:rgb(153,153,153)"/>
              <stop offset="1" style="stop-color:rgb(153,153,153)"/>
             </linearGradient>
            </defs>
            <path style="fill:url(#gradient6)" d="M 2004,656 L 3230,656 3230,1973 2004,1973 2004,656 Z"/>
           </g>
          </mask>
         </defs>
         <g style="mask:url(#mask4)">
          <path fill="rgb(0,0,0)" stroke="none" d="M 2391,1955 C 2268,1955 2176,1922 2114,1856 2053,1791 2021,1699 2021,1585 2021,1456 2063,1357 2146,1288 2229,1219 2364,1184 2550,1184 L 2825,1184 2825,1115 C 2825,1013 2804,940 2762,896 2718,852 2652,830 2562,830 2471,830 2404,846 2363,876 2321,908 2296,957 2288,1026 L 2075,1006 C 2110,784 2274,673 2567,673 2721,673 2837,709 2914,781 2992,851 3030,954 3030,1090 L 3030,1622 C 3030,1683 3038,1728 3054,1760 3069,1791 3100,1806 3144,1806 3164,1806 3187,1803 3212,1797 L 3212,1926 C 3160,1938 3108,1945 3054,1945 2979,1945 2923,1925 2889,1883 2855,1844 2835,1781 2831,1695 L 2825,1695 C 2772,1791 2712,1857 2643,1897 2574,1935 2489,1955 2391,1955 Z M 2438,1801 C 2512,1801 2579,1784 2637,1749 2695,1716 2741,1668 2775,1610 2808,1550 2825,1489 2825,1427 L 2825,1326 2601,1326 C 2505,1326 2433,1335 2384,1353 2334,1371 2296,1400 2270,1439 2243,1476 2230,1526 2230,1589 2230,1657 2249,1708 2284,1745 2320,1783 2371,1801 2438,1801 Z"/>
          <path fill="none" stroke="rgb(0,0,0)" stroke-width="35" stroke-linejoin="round" d="M 2391,1955 C 2268,1955 2176,1922 2114,1856 2053,1791 2021,1699 2021,1585 2021,1456 2063,1357 2146,1288 2229,1219 2364,1184 2550,1184 L 2825,1184 2825,1115 C 2825,1013 2804,940 2762,896 2718,852 2652,830 2562,830 2471,830 2404,846 2363,876 2321,908 2296,957 2288,1026 L 2075,1006 C 2110,784 2274,673 2567,673 2721,673 2837,709 2914,781 2992,851 3030,954 3030,1090 L 3030,1622 C 3030,1683 3038,1728 3054,1760 3069,1791 3100,1806 3144,1806 3164,1806 3187,1803 3212,1797 L 3212,1926 C 3160,1938 3108,1945 3054,1945 2979,1945 2923,1925 2889,1883 2855,1844 2835,1781 2831,1695 L 2825,1695 C 2772,1791 2712,1857 2643,1897 2574,1935 2489,1955 2391,1955 Z"/>
          <path fill="none" stroke="rgb(0,0,0)" stroke-width="35" stroke-linejoin="round" d="M 2438,1801 C 2512,1801 2579,1784 2637,1749 2695,1716 2741,1668 2775,1610 2808,1550 2825,1489 2825,1427 L 2825,1326 2601,1326 C 2505,1326 2433,1335 2384,1353 2334,1371 2296,1400 2270,1439 2243,1476 2230,1526 2230,1589 2230,1657 2249,1708 2284,1745 2320,1783 2371,1801 2438,1801 Z"/>
         </g>
         <path fill="rgb(204,0,0)" stroke="none" d="M 2356,1920 C 2233,1920 2141,1887 2079,1821 2018,1756 1986,1664 1986,1550 1986,1421 2028,1322 2111,1253 2194,1184 2329,1149 2515,1149 L 2790,1149 2790,1080 C 2790,978 2769,905 2727,861 2683,817 2617,795 2527,795 2436,795 2369,811 2328,841 2286,873 2261,922 2253,991 L 2040,971 C 2075,749 2239,638 2532,638 2686,638 2802,674 2879,746 2957,816 2995,919 2995,1055 L 2995,1587 C 2995,1648 3003,1693 3019,1725 3034,1756 3065,1771 3109,1771 3129,1771 3152,1768 3177,1762 L 3177,1891 C 3125,1903 3073,1910 3019,1910 2944,1910 2888,1890 2854,1848 2820,1809 2800,1746 2796,1660 L 2790,1660 C 2737,1756 2677,1822 2608,1862 2539,1900 2454,1920 2356,1920 Z M 2403,1766 C 2477,1766 2544,1749 2602,1714 2660,1681 2706,1633 2740,1575 2773,1515 2790,1454 2790,1392 L 2790,1291 2566,1291 C 2470,1291 2398,1300 2349,1318 2299,1336 2261,1365 2235,1404 2208,1441 2195,1491 2195,1554 2195,1622 2214,1673 2249,1710 2285,1748 2336,1766 2403,1766 Z"/>
         <path fill="none" stroke="rgb(255,255,255)" stroke-width="35" stroke-linejoin="round" d="M 2356,1920 C 2233,1920 2141,1887 2079,1821 2018,1756 1986,1664 1986,1550 1986,1421 2028,1322 2111,1253 2194,1184 2329,1149 2515,1149 L 2790,1149 2790,1080 C 2790,978 2769,905 2727,861 2683,817 2617,795 2527,795 2436,795 2369,811 2328,841 2286,873 2261,922 2253,991 L 2040,971 C 2075,749 2239,638 2532,638 2686,638 2802,674 2879,746 2957,816 2995,919 2995,1055 L 2995,1587 C 2995,1648 3003,1693 3019,1725 3034,1756 3065,1771 3109,1771 3129,1771 3152,1768 3177,1762 L 3177,1891 C 3125,1903 3073,1910 3019,1910 2944,1910 2888,1890 2854,1848 2820,1809 2800,1746 2796,1660 L 2790,1660 C 2737,1756 2677,1822 2608,1862 2539,1900 2454,1920 2356,1920 Z"/>
         <path fill="none" stroke="rgb(255,255,255)" stroke-width="35" stroke-linejoin="round" d="M 2403,1766 C 2477,1766 2544,1749 2602,1714 2660,1681 2706,1633 2740,1575 2773,1515 2790,1454 2790,1392 L 2790,1291 2566,1291 C 2470,1291 2398,1300 2349,1318 2299,1336 2261,1365 2235,1404 2208,1441 2195,1491 2195,1554 2195,1622 2214,1673 2249,1710 2285,1748 2336,1766 2403,1766 Z"/>
        </g>
       </g>
       <g class="com.sun.star.drawing.ClosedBezierShape">
        <g id="id10">
         <rect class="BoundingBox" stroke="none" fill="none" x="3171" y="642" width="1220" height="1795"/>
         <defs>
          <mask id="mask5">
           <g>
            <defs>
             <linearGradient id="gradient7" x1="3798" y1="678" x2="3798" y2="2436" gradientUnits="userSpaceOnUse">
              <stop offset="0.5" style="stop-color:rgb(153,153,153)"/>
              <stop offset="0.5" style="stop-color:rgb(153,153,153)"/>
              <stop offset="1" style="stop-color:rgb(153,153,153)"/>
              <stop offset="1" style="stop-color:rgb(153,153,153)"/>
             </linearGradient>
            </defs>
            <path style="fill:url(#gradient7)" d="M 3207,678 L 4390,678 4390,2436 3207,2436 3207,678 Z"/>
           </g>
          </mask>
         </defs>
         <g style="mask:url(#mask5)">
          <path fill="rgb(0,0,0)" stroke="none" d="M 3434,2418 C 3379,2418 3332,2412 3294,2405 L 3294,2251 C 3323,2255 3354,2257 3390,2257 3516,2257 3616,2163 3690,1974 L 3709,1925 3224,695 3441,695 3699,1379 C 3703,1389 3708,1402 3713,1417 3719,1432 3736,1481 3763,1566 3792,1651 3808,1697 3811,1708 L 3890,1482 4158,695 4372,695 3901,1932 C 3851,2063 3804,2162 3761,2225 3716,2290 3669,2338 3615,2370 3562,2402 3502,2418 3434,2418 Z"/>
          <path fill="none" stroke="rgb(0,0,0)" stroke-width="35" stroke-linejoin="round" d="M 3434,2418 C 3379,2418 3332,2412 3294,2405 L 3294,2251 C 3323,2255 3354,2257 3390,2257 3516,2257 3616,2163 3690,1974 L 3709,1925 3224,695 3441,695 3699,1379 C 3703,1389 3708,1402 3713,1417 3719,1432 3736,1481 3763,1566 3792,1651 3808,1697 3811,1708 L 3890,1482 4158,695 4372,695 3901,1932 C 3851,2063 3804,2162 3761,2225 3716,2290 3669,2338 3615,2370 3562,2402 3502,2418 3434,2418 Z"/>
         </g>
         <path fill="rgb(204,0,0)" stroke="none" d="M 3399,2383 C 3344,2383 3297,2377 3259,2370 L 3259,2216 C 3288,2220 3319,2222 3355,2222 3481,2222 3581,2128 3655,1939 L 3674,1890 3189,660 3406,660 3664,1344 C 3668,1354 3673,1367 3678,1382 3684,1397 3701,1446 3728,1531 3757,1616 3773,1662 3776,1673 L 3855,1447 4123,660 4337,660 3866,1897 C 3816,2028 3769,2127 3726,2190 3681,2255 3634,2303 3580,2335 3527,2367 3467,2383 3399,2383 Z"/>
         <path fill="none" stroke="rgb(255,255,255)" stroke-width="35" stroke-linejoin="round" d="M 3399,2383 C 3344,2383 3297,2377 3259,2370 L 3259,2216 C 3288,2220 3319,2222 3355,2222 3481,2222 3581,2128 3655,1939 L 3674,1890 3189,660 3406,660 3664,1344 C 3668,1354 3673,1367 3678,1382 3684,1397 3701,1446 3728,1531 3757,1616 3773,1662 3776,1673 L 3855,1447 4123,660 4337,660 3866,1897 C 3816,2028 3769,2127 3726,2190 3681,2255 3634,2303 3580,2335 3527,2367 3467,2383 3399,2383 Z"/>
        </g>
       </g>
       <g class="com.sun.star.drawing.ClosedBezierShape">
        <g id="id11">
         <rect class="BoundingBox" stroke="none" fill="none" x="4339" y="269" width="1598" height="1682"/>
         <defs>
          <mask id="mask6">
           <g>
            <defs>
             <linearGradient id="gradient8" x1="5155" y1="305" x2="5155" y2="1950" gradientUnits="userSpaceOnUse">
              <stop offset="0.5" style="stop-color:rgb(153,153,153)"/>
              <stop offset="0.5" style="stop-color:rgb(153,153,153)"/>
              <stop offset="1" style="stop-color:rgb(153,153,153)"/>
              <stop offset="1" style="stop-color:rgb(153,153,153)"/>
             </linearGradient>
            </defs>
            <path style="fill:url(#gradient8)" d="M 4375,305 L 5936,305 5936,1950 4375,1950 4375,305 Z"/>
           </g>
          </mask>
         </defs>
         <g style="mask:url(#mask6)">
          <path fill="rgb(0,0,0)" stroke="none" d="M 5267,1932 C 5192,1932 5117,1932 5043,1932 4826,1396 4609,858 4392,322 4468,322 4543,322 4620,322 4767,700 4914,1077 5060,1455 5092,1551 5125,1645 5156,1741 5188,1645 5219,1551 5251,1455 5397,1077 5543,700 5690,322 5765,322 5842,322 5918,322 5701,858 5484,1396 5267,1932 Z"/>
          <path fill="none" stroke="rgb(0,0,0)" stroke-width="35" stroke-linejoin="round" d="M 5267,1932 C 5192,1932 5117,1932 5043,1932 4826,1396 4609,858 4392,322 4468,322 4543,322 4620,322 4767,700 4914,1077 5060,1455 5092,1551 5125,1645 5156,1741 5188,1645 5219,1551 5251,1455 5397,1077 5543,700 5690,322 5765,322 5842,322 5918,322 5701,858 5484,1396 5267,1932 Z"/>
         </g>
         <path fill="rgb(204,0,0)" stroke="none" d="M 5232,1897 C 5157,1897 5082,1897 5008,1897 4791,1361 4574,823 4357,287 4433,287 4508,287 4585,287 4732,665 4879,1042 5025,1420 5057,1516 5090,1610 5121,1706 5153,1610 5184,1516 5216,1420 5362,1042 5508,665 5655,287 5730,287 5807,287 5883,287 5666,823 5449,1361 5232,1897 Z"/>
         <path fill="none" stroke="rgb(255,255,255)" stroke-width="35" stroke-linejoin="round" d="M 5232,1897 C 5157,1897 5082,1897 5008,1897 4791,1361 4574,823 4357,287 4433,287 4508,287 4585,287 4732,665 4879,1042 5025,1420 5057,1516 5090,1610 5121,1706 5153,1610 5184,1516 5216,1420 5362,1042 5508,665 5655,287 5730,287 5807,287 5883,287 5666,823 5449,1361 5232,1897 Z"/>
        </g>
       </g>
       <g class="com.sun.star.drawing.ClosedBezierShape">
        <g id="id12">
         <rect class="BoundingBox" stroke="none" fill="none" x="5877" y="182" width="715" height="1791"/>
         <defs>
          <mask id="mask7">
           <g>
            <defs>
             <linearGradient id="gradient9" x1="6252" y1="218" x2="6252" y2="1972" gradientUnits="userSpaceOnUse">
              <stop offset="0.5" style="stop-color:rgb(153,153,153)"/>
              <stop offset="0.5" style="stop-color:rgb(153,153,153)"/>
              <stop offset="1" style="stop-color:rgb(153,153,153)"/>
              <stop offset="1" style="stop-color:rgb(153,153,153)"/>
             </linearGradient>
            </defs>
            <path style="fill:url(#gradient9)" d="M 5913,218 L 6591,218 6591,1972 5913,1972 5913,218 Z"/>
           </g>
          </mask>
         </defs>
         <g style="mask:url(#mask7)">
          <path fill="rgb(0,0,0)" stroke="none" d="M 5930,1954 C 6085,1380 6240,808 6396,235 6455,235 6514,235 6573,235 6421,808 6267,1380 6113,1954 6052,1954 5991,1954 5930,1954 Z"/>
          <path fill="none" stroke="rgb(0,0,0)" stroke-width="35" stroke-linejoin="round" d="M 5930,1954 C 6085,1380 6240,808 6396,235 6455,235 6514,235 6573,235 6421,808 6267,1380 6113,1954 6052,1954 5991,1954 5930,1954 Z"/>
         </g>
         <path fill="rgb(204,0,0)" stroke="none" d="M 5895,1919 C 6050,1345 6205,773 6361,200 6420,200 6479,200 6538,200 6386,773 6232,1345 6078,1919 6017,1919 5956,1919 5895,1919 Z"/>
         <path fill="none" stroke="rgb(255,255,255)" stroke-width="35" stroke-linejoin="round" d="M 5895,1919 C 6050,1345 6205,773 6361,200 6420,200 6479,200 6538,200 6386,773 6232,1345 6078,1919 6017,1919 5956,1919 5895,1919 Z"/>
        </g>
       </g>
       <g class="com.sun.star.drawing.ClosedBezierShape">
        <g id="id13">
         <rect class="BoundingBox" stroke="none" fill="none" x="6520" y="182" width="715" height="1791"/>
         <defs>
          <mask id="mask8">
           <g>
            <defs>
             <linearGradient id="gradient10" x1="6895" y1="218" x2="6895" y2="1972" gradientUnits="userSpaceOnUse">
              <stop offset="0.5" style="stop-color:rgb(153,153,153)"/>
              <stop offset="0.5" style="stop-color:rgb(153,153,153)"/>
              <stop offset="1" style="stop-color:rgb(153,153,153)"/>
              <stop offset="1" style="stop-color:rgb(153,153,153)"/>
             </linearGradient>
            </defs>
            <path style="fill:url(#gradient10)" d="M 6556,218 L 7234,218 7234,1972 6556,1972 6556,218 Z"/>
           </g>
          </mask>
         </defs>
         <g style="mask:url(#mask8)">
          <path fill="rgb(0,0,0)" stroke="none" d="M 6573,1954 C 6728,1380 6883,808 7039,235 7098,235 7157,235 7216,235 7064,808 6910,1380 6756,1954 6695,1954 6634,1954 6573,1954 Z"/>
          <path fill="none" stroke="rgb(0,0,0)" stroke-width="35" stroke-linejoin="round" d="M 6573,1954 C 6728,1380 6883,808 7039,235 7098,235 7157,235 7216,235 7064,808 6910,1380 6756,1954 6695,1954 6634,1954 6573,1954 Z"/>
         </g>
         <path fill="rgb(204,0,0)" stroke="none" d="M 6538,1919 C 6693,1345 6848,773 7004,200 7063,200 7122,200 7181,200 7029,773 6875,1345 6721,1919 6660,1919 6599,1919 6538,1919 Z"/>
         <path fill="none" stroke="rgb(255,255,255)" stroke-width="35" stroke-linejoin="round" d="M 6538,1919 C 6693,1345 6848,773 7004,200 7063,200 7122,200 7181,200 7029,773 6875,1345 6721,1919 6660,1919 6599,1919 6538,1919 Z"/>
        </g>
       </g>
      </g>
     </g>
    </g>
   </g>
  </g>
 </g>
</svg>